<?xml version="1.0" standalone="no"?>
<!DOCTYPE svg PUBLIC "-//W3C//DTD SVG 20010904//EN"
 "http://www.w3.org/TR/2001/REC-SVG-20010904/DTD/svg10.dtd">
<svg version="1.0" xmlns="http://www.w3.org/2000/svg"
 width="187.000000pt" height="187.000000pt" viewBox="0 0 187.000000 187.000000"
 preserveAspectRatio="xMidYMid meet">
<metadata>
Created by potrace 1.14, written by Peter Selinger 2001-2017
</metadata>
<g transform="translate(0.000000,187.000000) scale(0.100000,-0.100000)"
fill="#000000" stroke="none">
<path d="M831 1843 c-60 -47 -60 -44 -60 -463 -1 -371 0 -384 20 -420 18 -31
84 -82 104 -80 38 3 54 -3 60 -21 4 -12 7 -177 7 -366 1 -285 -2 -347 -14
-359 -11 -12 -17 -12 -31 -1 -16 11 -18 42 -18 365 l0 352 -65 0 -64 0 0 -360
c1 -214 5 -371 11 -389 21 -60 98 -105 164 -96 51 6 96 25 89 36 -3 5 0 9 6 9
5 0 19 14 29 31 18 29 19 56 19 420 0 350 -2 391 -18 421 -20 39 -83 78 -126
78 -24 0 -33 5 -38 23 -8 30 -6 698 2 717 11 24 41 21 48 -6 3 -13 7 -176 8
-361 l1 -338 62 -3 61 -3 1 363 c0 349 -5 418 -30 418 -5 0 -9 6 -9 13 0 25
-63 48 -127 46 -48 -2 -68 -7 -92 -26z"/>
</g>
</svg>
